<mxfile host="app.diagrams.net" modified="2023-04-10T05:43:51.686Z" agent="Mozilla/5.0 (Macintosh; Intel Mac OS X 10_15_7) AppleWebKit/537.36 (KHTML, like Gecko) Chrome/112.0.0.0 Safari/537.36" etag="UKLGFj4RqGznkx91gfT-" version="21.1.5" type="github">
  <diagram id="C5RBs43oDa-KdzZeNtuy" name="Page-1">
    <mxGraphModel dx="1540" dy="2233" grid="1" gridSize="10" guides="1" tooltips="1" connect="1" arrows="1" fold="1" page="1" pageScale="1" pageWidth="827" pageHeight="1169" math="0" shadow="0">
      <root>
        <mxCell id="WIyWlLk6GJQsqaUBKTNV-0" />
        <mxCell id="WIyWlLk6GJQsqaUBKTNV-1" parent="WIyWlLk6GJQsqaUBKTNV-0" />
        <mxCell id="q3rZx8Sa1CmOnYqlIneV-11" style="edgeStyle=orthogonalEdgeStyle;rounded=0;orthogonalLoop=1;jettySize=auto;html=1;exitX=0.5;exitY=1;exitDx=0;exitDy=0;entryX=0.5;entryY=0;entryDx=0;entryDy=0;" edge="1" parent="WIyWlLk6GJQsqaUBKTNV-1" source="WIyWlLk6GJQsqaUBKTNV-3" target="q3rZx8Sa1CmOnYqlIneV-1">
          <mxGeometry relative="1" as="geometry" />
        </mxCell>
        <mxCell id="WIyWlLk6GJQsqaUBKTNV-3" value="cookie治理服务" style="rounded=1;whiteSpace=wrap;html=1;fontSize=12;glass=0;strokeWidth=1;shadow=0;" parent="WIyWlLk6GJQsqaUBKTNV-1" vertex="1">
          <mxGeometry x="390" y="-1060" width="120" height="40" as="geometry" />
        </mxCell>
        <mxCell id="q3rZx8Sa1CmOnYqlIneV-1" value="获取域下所有cookie" style="rounded=1;whiteSpace=wrap;html=1;fontSize=12;glass=0;strokeWidth=1;shadow=0;" vertex="1" parent="WIyWlLk6GJQsqaUBKTNV-1">
          <mxGeometry x="390" y="-980" width="120" height="40" as="geometry" />
        </mxCell>
        <mxCell id="q3rZx8Sa1CmOnYqlIneV-12" style="edgeStyle=orthogonalEdgeStyle;rounded=0;orthogonalLoop=1;jettySize=auto;html=1;exitX=1;exitY=0.5;exitDx=0;exitDy=0;exitPerimeter=0;entryX=0;entryY=0.5;entryDx=0;entryDy=0;" edge="1" parent="WIyWlLk6GJQsqaUBKTNV-1" source="q3rZx8Sa1CmOnYqlIneV-5" target="WIyWlLk6GJQsqaUBKTNV-3">
          <mxGeometry relative="1" as="geometry" />
        </mxCell>
        <mxCell id="q3rZx8Sa1CmOnYqlIneV-51" value="http request" style="edgeLabel;html=1;align=center;verticalAlign=middle;resizable=0;points=[];" vertex="1" connectable="0" parent="q3rZx8Sa1CmOnYqlIneV-12">
          <mxGeometry x="-0.0877" relative="1" as="geometry">
            <mxPoint as="offset" />
          </mxGeometry>
        </mxCell>
        <mxCell id="q3rZx8Sa1CmOnYqlIneV-5" value="浏览器/小程序" style="strokeWidth=2;html=1;shape=mxgraph.flowchart.start_2;whiteSpace=wrap;" vertex="1" parent="WIyWlLk6GJQsqaUBKTNV-1">
          <mxGeometry x="100" y="-1090" width="100" height="100" as="geometry" />
        </mxCell>
        <mxCell id="q3rZx8Sa1CmOnYqlIneV-16" style="edgeStyle=orthogonalEdgeStyle;rounded=0;orthogonalLoop=1;jettySize=auto;html=1;exitX=0.5;exitY=1;exitDx=0;exitDy=0;entryX=0.5;entryY=0;entryDx=0;entryDy=0;" edge="1" parent="WIyWlLk6GJQsqaUBKTNV-1" source="q3rZx8Sa1CmOnYqlIneV-1" target="q3rZx8Sa1CmOnYqlIneV-15">
          <mxGeometry relative="1" as="geometry">
            <mxPoint x="450" y="-850" as="sourcePoint" />
          </mxGeometry>
        </mxCell>
        <mxCell id="q3rZx8Sa1CmOnYqlIneV-18" value="" style="edgeStyle=orthogonalEdgeStyle;rounded=0;orthogonalLoop=1;jettySize=auto;html=1;" edge="1" parent="WIyWlLk6GJQsqaUBKTNV-1" source="q3rZx8Sa1CmOnYqlIneV-31" target="q3rZx8Sa1CmOnYqlIneV-17">
          <mxGeometry relative="1" as="geometry" />
        </mxCell>
        <mxCell id="q3rZx8Sa1CmOnYqlIneV-15" value="黑/百名单过滤" style="rounded=1;whiteSpace=wrap;html=1;fontSize=12;glass=0;strokeWidth=1;shadow=0;" vertex="1" parent="WIyWlLk6GJQsqaUBKTNV-1">
          <mxGeometry x="390" y="-910" width="120" height="40" as="geometry" />
        </mxCell>
        <UserObject label="Yes" tooltip="Yes" id="q3rZx8Sa1CmOnYqlIneV-20">
          <mxCell style="edgeStyle=orthogonalEdgeStyle;rounded=0;orthogonalLoop=1;jettySize=auto;html=1;" edge="1" parent="WIyWlLk6GJQsqaUBKTNV-1" source="q3rZx8Sa1CmOnYqlIneV-17" target="q3rZx8Sa1CmOnYqlIneV-19">
            <mxGeometry relative="1" as="geometry" />
          </mxCell>
        </UserObject>
        <mxCell id="q3rZx8Sa1CmOnYqlIneV-22" value="" style="edgeStyle=orthogonalEdgeStyle;rounded=0;orthogonalLoop=1;jettySize=auto;html=1;" edge="1" parent="WIyWlLk6GJQsqaUBKTNV-1" source="q3rZx8Sa1CmOnYqlIneV-17" target="q3rZx8Sa1CmOnYqlIneV-21">
          <mxGeometry relative="1" as="geometry" />
        </mxCell>
        <mxCell id="q3rZx8Sa1CmOnYqlIneV-23" value="No" style="edgeLabel;html=1;align=center;verticalAlign=middle;resizable=0;points=[];" vertex="1" connectable="0" parent="q3rZx8Sa1CmOnYqlIneV-22">
          <mxGeometry x="-0.1917" y="1" relative="1" as="geometry">
            <mxPoint as="offset" />
          </mxGeometry>
        </mxCell>
        <mxCell id="q3rZx8Sa1CmOnYqlIneV-17" value="需要清理？" style="rhombus;whiteSpace=wrap;html=1;shadow=0;fontFamily=Helvetica;fontSize=12;align=center;strokeWidth=1;spacing=6;spacingTop=-4;" vertex="1" parent="WIyWlLk6GJQsqaUBKTNV-1">
          <mxGeometry x="400" y="-780" width="100" height="80" as="geometry" />
        </mxCell>
        <mxCell id="q3rZx8Sa1CmOnYqlIneV-24" style="edgeStyle=orthogonalEdgeStyle;rounded=0;orthogonalLoop=1;jettySize=auto;html=1;exitX=0.5;exitY=1;exitDx=0;exitDy=0;entryX=1;entryY=0.5;entryDx=0;entryDy=0;" edge="1" parent="WIyWlLk6GJQsqaUBKTNV-1" source="q3rZx8Sa1CmOnYqlIneV-19" target="q3rZx8Sa1CmOnYqlIneV-21">
          <mxGeometry relative="1" as="geometry" />
        </mxCell>
        <mxCell id="q3rZx8Sa1CmOnYqlIneV-19" value="清理header生成" style="rounded=1;whiteSpace=wrap;html=1;fontSize=12;glass=0;strokeWidth=1;shadow=0;" vertex="1" parent="WIyWlLk6GJQsqaUBKTNV-1">
          <mxGeometry x="570" y="-690" width="120" height="40" as="geometry" />
        </mxCell>
        <mxCell id="q3rZx8Sa1CmOnYqlIneV-26" value="" style="edgeStyle=orthogonalEdgeStyle;rounded=0;orthogonalLoop=1;jettySize=auto;html=1;" edge="1" parent="WIyWlLk6GJQsqaUBKTNV-1" source="q3rZx8Sa1CmOnYqlIneV-21" target="q3rZx8Sa1CmOnYqlIneV-25">
          <mxGeometry relative="1" as="geometry" />
        </mxCell>
        <mxCell id="q3rZx8Sa1CmOnYqlIneV-21" value="数据记录" style="rounded=1;whiteSpace=wrap;html=1;fontSize=12;glass=0;strokeWidth=1;shadow=0;" vertex="1" parent="WIyWlLk6GJQsqaUBKTNV-1">
          <mxGeometry x="390" y="-640" width="120" height="40" as="geometry" />
        </mxCell>
        <mxCell id="q3rZx8Sa1CmOnYqlIneV-27" style="edgeStyle=orthogonalEdgeStyle;rounded=0;orthogonalLoop=1;jettySize=auto;html=1;exitX=0;exitY=0.5;exitDx=0;exitDy=0;entryX=0.5;entryY=1;entryDx=0;entryDy=0;entryPerimeter=0;" edge="1" parent="WIyWlLk6GJQsqaUBKTNV-1" source="q3rZx8Sa1CmOnYqlIneV-25" target="q3rZx8Sa1CmOnYqlIneV-5">
          <mxGeometry relative="1" as="geometry" />
        </mxCell>
        <mxCell id="q3rZx8Sa1CmOnYqlIneV-52" value="http response" style="edgeLabel;html=1;align=center;verticalAlign=middle;resizable=0;points=[];" vertex="1" connectable="0" parent="q3rZx8Sa1CmOnYqlIneV-27">
          <mxGeometry x="0.2209" y="-3" relative="1" as="geometry">
            <mxPoint as="offset" />
          </mxGeometry>
        </mxCell>
        <mxCell id="q3rZx8Sa1CmOnYqlIneV-25" value="response" style="rounded=1;whiteSpace=wrap;html=1;fontSize=12;glass=0;strokeWidth=1;shadow=0;" vertex="1" parent="WIyWlLk6GJQsqaUBKTNV-1">
          <mxGeometry x="390" y="-560" width="120" height="40" as="geometry" />
        </mxCell>
        <mxCell id="q3rZx8Sa1CmOnYqlIneV-34" style="edgeStyle=orthogonalEdgeStyle;rounded=0;orthogonalLoop=1;jettySize=auto;html=1;exitX=1;exitY=0.5;exitDx=0;exitDy=0;exitPerimeter=0;" edge="1" parent="WIyWlLk6GJQsqaUBKTNV-1" source="q3rZx8Sa1CmOnYqlIneV-29" target="q3rZx8Sa1CmOnYqlIneV-30">
          <mxGeometry relative="1" as="geometry" />
        </mxCell>
        <mxCell id="q3rZx8Sa1CmOnYqlIneV-29" value="浏览器" style="strokeWidth=2;html=1;shape=mxgraph.flowchart.start_2;whiteSpace=wrap;" vertex="1" parent="WIyWlLk6GJQsqaUBKTNV-1">
          <mxGeometry x="100" y="-400" width="100" height="100" as="geometry" />
        </mxCell>
        <mxCell id="q3rZx8Sa1CmOnYqlIneV-39" style="edgeStyle=orthogonalEdgeStyle;rounded=0;orthogonalLoop=1;jettySize=auto;html=1;exitX=0.5;exitY=1;exitDx=0;exitDy=0;entryX=0.5;entryY=0;entryDx=0;entryDy=0;" edge="1" parent="WIyWlLk6GJQsqaUBKTNV-1" source="q3rZx8Sa1CmOnYqlIneV-30" target="q3rZx8Sa1CmOnYqlIneV-33">
          <mxGeometry relative="1" as="geometry" />
        </mxCell>
        <mxCell id="q3rZx8Sa1CmOnYqlIneV-30" value="cookie清理js-sdk" style="rounded=1;whiteSpace=wrap;html=1;fontSize=12;glass=0;strokeWidth=1;shadow=0;" vertex="1" parent="WIyWlLk6GJQsqaUBKTNV-1">
          <mxGeometry x="380" y="-370" width="120" height="40" as="geometry" />
        </mxCell>
        <mxCell id="q3rZx8Sa1CmOnYqlIneV-32" value="" style="edgeStyle=orthogonalEdgeStyle;rounded=0;orthogonalLoop=1;jettySize=auto;html=1;" edge="1" parent="WIyWlLk6GJQsqaUBKTNV-1" source="q3rZx8Sa1CmOnYqlIneV-15" target="q3rZx8Sa1CmOnYqlIneV-31">
          <mxGeometry relative="1" as="geometry">
            <mxPoint x="450" y="-860" as="sourcePoint" />
            <mxPoint x="450" y="-780" as="targetPoint" />
          </mxGeometry>
        </mxCell>
        <mxCell id="q3rZx8Sa1CmOnYqlIneV-31" value="cookie大小检查" style="rounded=1;whiteSpace=wrap;html=1;fontSize=12;glass=0;strokeWidth=1;shadow=0;" vertex="1" parent="WIyWlLk6GJQsqaUBKTNV-1">
          <mxGeometry x="390" y="-840" width="120" height="40" as="geometry" />
        </mxCell>
        <mxCell id="q3rZx8Sa1CmOnYqlIneV-40" style="edgeStyle=orthogonalEdgeStyle;rounded=0;orthogonalLoop=1;jettySize=auto;html=1;exitX=0.5;exitY=1;exitDx=0;exitDy=0;entryX=0.5;entryY=0;entryDx=0;entryDy=0;" edge="1" parent="WIyWlLk6GJQsqaUBKTNV-1" source="q3rZx8Sa1CmOnYqlIneV-33" target="q3rZx8Sa1CmOnYqlIneV-35">
          <mxGeometry relative="1" as="geometry" />
        </mxCell>
        <mxCell id="q3rZx8Sa1CmOnYqlIneV-33" value="获取白名单" style="rounded=1;whiteSpace=wrap;html=1;fontSize=12;glass=0;strokeWidth=1;shadow=0;" vertex="1" parent="WIyWlLk6GJQsqaUBKTNV-1">
          <mxGeometry x="380" y="-300" width="120" height="40" as="geometry" />
        </mxCell>
        <mxCell id="q3rZx8Sa1CmOnYqlIneV-41" style="edgeStyle=orthogonalEdgeStyle;rounded=0;orthogonalLoop=1;jettySize=auto;html=1;exitX=0.5;exitY=1;exitDx=0;exitDy=0;entryX=0.5;entryY=0;entryDx=0;entryDy=0;" edge="1" parent="WIyWlLk6GJQsqaUBKTNV-1" source="q3rZx8Sa1CmOnYqlIneV-35" target="q3rZx8Sa1CmOnYqlIneV-36">
          <mxGeometry relative="1" as="geometry" />
        </mxCell>
        <mxCell id="q3rZx8Sa1CmOnYqlIneV-35" value="白名单过滤" style="rounded=1;whiteSpace=wrap;html=1;fontSize=12;glass=0;strokeWidth=1;shadow=0;" vertex="1" parent="WIyWlLk6GJQsqaUBKTNV-1">
          <mxGeometry x="380" y="-230" width="120" height="40" as="geometry" />
        </mxCell>
        <mxCell id="q3rZx8Sa1CmOnYqlIneV-45" style="edgeStyle=orthogonalEdgeStyle;rounded=0;orthogonalLoop=1;jettySize=auto;html=1;exitX=0.5;exitY=1;exitDx=0;exitDy=0;entryX=0.5;entryY=0;entryDx=0;entryDy=0;" edge="1" parent="WIyWlLk6GJQsqaUBKTNV-1" source="q3rZx8Sa1CmOnYqlIneV-36" target="q3rZx8Sa1CmOnYqlIneV-42">
          <mxGeometry relative="1" as="geometry" />
        </mxCell>
        <mxCell id="q3rZx8Sa1CmOnYqlIneV-46" value="Yes" style="edgeLabel;html=1;align=center;verticalAlign=middle;resizable=0;points=[];" vertex="1" connectable="0" parent="q3rZx8Sa1CmOnYqlIneV-45">
          <mxGeometry x="-0.32" y="-2" relative="1" as="geometry">
            <mxPoint as="offset" />
          </mxGeometry>
        </mxCell>
        <mxCell id="q3rZx8Sa1CmOnYqlIneV-49" style="edgeStyle=orthogonalEdgeStyle;rounded=0;orthogonalLoop=1;jettySize=auto;html=1;exitX=0;exitY=0.5;exitDx=0;exitDy=0;entryX=0.5;entryY=0;entryDx=0;entryDy=0;" edge="1" parent="WIyWlLk6GJQsqaUBKTNV-1" source="q3rZx8Sa1CmOnYqlIneV-36" target="q3rZx8Sa1CmOnYqlIneV-38">
          <mxGeometry relative="1" as="geometry" />
        </mxCell>
        <mxCell id="q3rZx8Sa1CmOnYqlIneV-50" value="No" style="edgeLabel;html=1;align=center;verticalAlign=middle;resizable=0;points=[];" vertex="1" connectable="0" parent="q3rZx8Sa1CmOnYqlIneV-49">
          <mxGeometry x="-0.3719" y="1" relative="1" as="geometry">
            <mxPoint as="offset" />
          </mxGeometry>
        </mxCell>
        <mxCell id="q3rZx8Sa1CmOnYqlIneV-36" value="需要清理？" style="rhombus;whiteSpace=wrap;html=1;shadow=0;fontFamily=Helvetica;fontSize=12;align=center;strokeWidth=1;spacing=6;spacingTop=-4;" vertex="1" parent="WIyWlLk6GJQsqaUBKTNV-1">
          <mxGeometry x="390" y="-160" width="100" height="80" as="geometry" />
        </mxCell>
        <mxCell id="q3rZx8Sa1CmOnYqlIneV-38" value="结束" style="whiteSpace=wrap;html=1;aspect=fixed;" vertex="1" parent="WIyWlLk6GJQsqaUBKTNV-1">
          <mxGeometry x="110" y="-50" width="80" height="80" as="geometry" />
        </mxCell>
        <mxCell id="q3rZx8Sa1CmOnYqlIneV-48" style="edgeStyle=orthogonalEdgeStyle;rounded=0;orthogonalLoop=1;jettySize=auto;html=1;exitX=0;exitY=0.5;exitDx=0;exitDy=0;entryX=1;entryY=0.5;entryDx=0;entryDy=0;" edge="1" parent="WIyWlLk6GJQsqaUBKTNV-1" source="q3rZx8Sa1CmOnYqlIneV-42" target="q3rZx8Sa1CmOnYqlIneV-38">
          <mxGeometry relative="1" as="geometry" />
        </mxCell>
        <mxCell id="q3rZx8Sa1CmOnYqlIneV-42" value="js执行清理" style="rounded=1;whiteSpace=wrap;html=1;fontSize=12;glass=0;strokeWidth=1;shadow=0;" vertex="1" parent="WIyWlLk6GJQsqaUBKTNV-1">
          <mxGeometry x="380" y="-30" width="120" height="40" as="geometry" />
        </mxCell>
      </root>
    </mxGraphModel>
  </diagram>
</mxfile>
